<mxfile modified="2022-06-06T14:27:52.752Z" host="app.diagrams.net" agent="5.0 (Windows NT 10.0; Win64; x64) AppleWebKit/537.36 (KHTML, like Gecko) Chrome/101.0.4951.67 Safari/537.36" etag="CHpsfsjB9e3tVU_6oWTt" version="18.2.0" type="github" pages="5">
  <diagram id="Ht1M8jgEwFfnCIfOTk4-" name="Managed Services">
    <mxGraphModel dx="1038" dy="590" grid="1" gridSize="10" guides="1" tooltips="1" connect="1" arrows="1" fold="1" page="1" pageScale="1" pageWidth="1169" pageHeight="827" math="0" shadow="0">
      <root>
        <mxCell id="0" />
        <mxCell id="1" parent="0" />
        <mxCell id="2_ppJLMLlIrcaLShZZtg-2" value="" style="rounded=1;whiteSpace=wrap;html=1;arcSize=2;" parent="1" vertex="1">
          <mxGeometry x="320" y="50" width="610" height="540" as="geometry" />
        </mxCell>
        <mxCell id="AVd7qzbXL1Kih0jhRRU6-10" style="edgeStyle=orthogonalEdgeStyle;rounded=0;orthogonalLoop=1;jettySize=auto;html=1;entryX=0;entryY=0.5;entryDx=0;entryDy=0;entryPerimeter=0;" parent="1" source="UEzPUAAOIrF-is8g5C7q-116" target="AVd7qzbXL1Kih0jhRRU6-9" edge="1">
          <mxGeometry relative="1" as="geometry" />
        </mxCell>
        <mxCell id="UEzPUAAOIrF-is8g5C7q-116" value="Amazon S3" style="outlineConnect=0;fontColor=#232F3E;gradientColor=#60A337;gradientDirection=north;fillColor=#277116;strokeColor=#ffffff;dashed=0;verticalLabelPosition=bottom;verticalAlign=top;align=center;html=1;fontSize=12;fontStyle=0;aspect=fixed;shape=mxgraph.aws4.resourceIcon;resIcon=mxgraph.aws4.s3;labelBackgroundColor=#ffffff;" parent="1" vertex="1">
          <mxGeometry x="600.0000000000002" y="160" width="78" height="78" as="geometry" />
        </mxCell>
        <mxCell id="AVd7qzbXL1Kih0jhRRU6-3" style="edgeStyle=orthogonalEdgeStyle;rounded=0;orthogonalLoop=1;jettySize=auto;html=1;entryX=0;entryY=0.5;entryDx=0;entryDy=0;entryPerimeter=0;" parent="1" source="AVd7qzbXL1Kih0jhRRU6-1" target="AVd7qzbXL1Kih0jhRRU6-2" edge="1">
          <mxGeometry relative="1" as="geometry" />
        </mxCell>
        <mxCell id="AVd7qzbXL1Kih0jhRRU6-1" value="Amazon MSK" style="sketch=0;points=[[0,0,0],[0.25,0,0],[0.5,0,0],[0.75,0,0],[1,0,0],[0,1,0],[0.25,1,0],[0.5,1,0],[0.75,1,0],[1,1,0],[0,0.25,0],[0,0.5,0],[0,0.75,0],[1,0.25,0],[1,0.5,0],[1,0.75,0]];outlineConnect=0;fontColor=#232F3E;gradientColor=#945DF2;gradientDirection=north;fillColor=#5A30B5;strokeColor=#ffffff;dashed=0;verticalLabelPosition=bottom;verticalAlign=top;align=center;html=1;fontSize=12;fontStyle=0;aspect=fixed;shape=mxgraph.aws4.resourceIcon;resIcon=mxgraph.aws4.managed_streaming_for_kafka;" parent="1" vertex="1">
          <mxGeometry x="200" y="160" width="78" height="78" as="geometry" />
        </mxCell>
        <mxCell id="AVd7qzbXL1Kih0jhRRU6-4" style="edgeStyle=orthogonalEdgeStyle;rounded=0;orthogonalLoop=1;jettySize=auto;html=1;exitX=1;exitY=0.5;exitDx=0;exitDy=0;exitPerimeter=0;" parent="1" source="AVd7qzbXL1Kih0jhRRU6-2" target="UEzPUAAOIrF-is8g5C7q-116" edge="1">
          <mxGeometry relative="1" as="geometry" />
        </mxCell>
        <mxCell id="AVd7qzbXL1Kih0jhRRU6-2" value="Amazon Kinesis" style="sketch=0;points=[[0,0,0],[0.25,0,0],[0.5,0,0],[0.75,0,0],[1,0,0],[0,1,0],[0.25,1,0],[0.5,1,0],[0.75,1,0],[1,1,0],[0,0.25,0],[0,0.5,0],[0,0.75,0],[1,0.25,0],[1,0.5,0],[1,0.75,0]];outlineConnect=0;fontColor=#232F3E;gradientColor=#945DF2;gradientDirection=north;fillColor=#5A30B5;strokeColor=#ffffff;dashed=0;verticalLabelPosition=bottom;verticalAlign=top;align=center;html=1;fontSize=12;fontStyle=0;aspect=fixed;shape=mxgraph.aws4.resourceIcon;resIcon=mxgraph.aws4.kinesis_data_analytics;" parent="1" vertex="1">
          <mxGeometry x="400" y="160" width="78" height="78" as="geometry" />
        </mxCell>
        <mxCell id="AVd7qzbXL1Kih0jhRRU6-7" style="edgeStyle=orthogonalEdgeStyle;rounded=0;orthogonalLoop=1;jettySize=auto;html=1;" parent="1" source="AVd7qzbXL1Kih0jhRRU6-5" target="AVd7qzbXL1Kih0jhRRU6-6" edge="1">
          <mxGeometry relative="1" as="geometry" />
        </mxCell>
        <mxCell id="AVd7qzbXL1Kih0jhRRU6-5" value="IAM" style="sketch=0;outlineConnect=0;fontColor=#232F3E;gradientColor=none;fillColor=#D45B07;strokeColor=none;dashed=0;verticalLabelPosition=bottom;verticalAlign=top;align=center;html=1;fontSize=12;fontStyle=0;aspect=fixed;pointerEvents=1;shape=mxgraph.aws4.container_1;" parent="1" vertex="1">
          <mxGeometry x="215" y="343.5" width="48" height="31" as="geometry" />
        </mxCell>
        <mxCell id="AVd7qzbXL1Kih0jhRRU6-8" style="edgeStyle=orthogonalEdgeStyle;rounded=0;orthogonalLoop=1;jettySize=auto;html=1;" parent="1" source="AVd7qzbXL1Kih0jhRRU6-6" target="UEzPUAAOIrF-is8g5C7q-116" edge="1">
          <mxGeometry relative="1" as="geometry">
            <mxPoint x="600" y="359" as="targetPoint" />
          </mxGeometry>
        </mxCell>
        <mxCell id="AVd7qzbXL1Kih0jhRRU6-6" value="AWS Glue ETL" style="outlineConnect=0;fontColor=#232F3E;gradientColor=#945DF2;gradientDirection=north;fillColor=#5A30B5;strokeColor=#ffffff;dashed=0;verticalLabelPosition=bottom;verticalAlign=top;align=center;html=1;fontSize=12;fontStyle=0;aspect=fixed;shape=mxgraph.aws4.resourceIcon;resIcon=mxgraph.aws4.glue;labelBackgroundColor=#ffffff;" parent="1" vertex="1">
          <mxGeometry x="400.0000000000002" y="320" width="78" height="78" as="geometry" />
        </mxCell>
        <mxCell id="AVd7qzbXL1Kih0jhRRU6-9" value="" style="sketch=0;points=[[0,0,0],[0.25,0,0],[0.5,0,0],[0.75,0,0],[1,0,0],[0,1,0],[0.25,1,0],[0.5,1,0],[0.75,1,0],[1,1,0],[0,0.25,0],[0,0.5,0],[0,0.75,0],[1,0.25,0],[1,0.5,0],[1,0.75,0]];outlineConnect=0;fontColor=#232F3E;gradientColor=#945DF2;gradientDirection=north;fillColor=#5A30B5;strokeColor=#ffffff;dashed=0;verticalLabelPosition=bottom;verticalAlign=top;align=center;html=1;fontSize=12;fontStyle=0;aspect=fixed;shape=mxgraph.aws4.resourceIcon;resIcon=mxgraph.aws4.quicksight;" parent="1" vertex="1">
          <mxGeometry x="800" y="160" width="78" height="78" as="geometry" />
        </mxCell>
        <mxCell id="AVd7qzbXL1Kih0jhRRU6-12" value="Processing Data" style="text;html=1;align=center;verticalAlign=middle;resizable=0;points=[];autosize=1;strokeColor=none;fillColor=none;" parent="1" vertex="1">
          <mxGeometry x="50" y="189" width="100" height="20" as="geometry" />
        </mxCell>
        <mxCell id="AVd7qzbXL1Kih0jhRRU6-13" value="Operator User Info&lt;br&gt;&amp;lt;daily changes&amp;gt;" style="text;html=1;align=center;verticalAlign=middle;resizable=0;points=[];autosize=1;strokeColor=none;fillColor=none;" parent="1" vertex="1">
          <mxGeometry x="40" y="349.5" width="110" height="30" as="geometry" />
        </mxCell>
        <mxCell id="AVd7qzbXL1Kih0jhRRU6-16" style="edgeStyle=orthogonalEdgeStyle;rounded=0;orthogonalLoop=1;jettySize=auto;html=1;entryX=0.5;entryY=1;entryDx=0;entryDy=0;entryPerimeter=0;" parent="1" source="AVd7qzbXL1Kih0jhRRU6-14" target="AVd7qzbXL1Kih0jhRRU6-9" edge="1">
          <mxGeometry relative="1" as="geometry" />
        </mxCell>
        <mxCell id="AVd7qzbXL1Kih0jhRRU6-14" value="" style="sketch=0;points=[[0,0,0],[0.25,0,0],[0.5,0,0],[0.75,0,0],[1,0,0],[0,1,0],[0.25,1,0],[0.5,1,0],[0.75,1,0],[1,1,0],[0,0.25,0],[0,0.5,0],[0,0.75,0],[1,0.25,0],[1,0.5,0],[1,0.75,0]];outlineConnect=0;fontColor=#232F3E;gradientColor=#60A337;gradientDirection=north;fillColor=#277116;strokeColor=#ffffff;dashed=0;verticalLabelPosition=bottom;verticalAlign=top;align=center;html=1;fontSize=12;fontStyle=0;aspect=fixed;shape=mxgraph.aws4.resourceIcon;resIcon=mxgraph.aws4.s3;" parent="1" vertex="1">
          <mxGeometry x="200" y="480" width="78" height="78" as="geometry" />
        </mxCell>
        <mxCell id="AVd7qzbXL1Kih0jhRRU6-15" value="Other static data&lt;br&gt;&amp;lt;csv,xml,json&amp;gt;" style="text;html=1;align=center;verticalAlign=middle;resizable=0;points=[];autosize=1;strokeColor=none;fillColor=none;" parent="1" vertex="1">
          <mxGeometry x="50" y="504" width="100" height="30" as="geometry" />
        </mxCell>
        <mxCell id="AVd7qzbXL1Kih0jhRRU6-17" value="Data Sources" style="whiteSpace=wrap;html=1;" parent="1" vertex="1">
          <mxGeometry x="190" y="80" width="100" height="30" as="geometry" />
        </mxCell>
        <mxCell id="AVd7qzbXL1Kih0jhRRU6-18" value="Data Stream" style="whiteSpace=wrap;html=1;" parent="1" vertex="1">
          <mxGeometry x="389" y="80" width="100" height="30" as="geometry" />
        </mxCell>
        <mxCell id="AVd7qzbXL1Kih0jhRRU6-19" value="Data Lake" style="whiteSpace=wrap;html=1;" parent="1" vertex="1">
          <mxGeometry x="589" y="80" width="100" height="30" as="geometry" />
        </mxCell>
        <mxCell id="AVd7qzbXL1Kih0jhRRU6-20" value="Visualization" style="whiteSpace=wrap;html=1;" parent="1" vertex="1">
          <mxGeometry x="789" y="80" width="100" height="30" as="geometry" />
        </mxCell>
        <mxCell id="AVd7qzbXL1Kih0jhRRU6-21" value="" style="endArrow=none;dashed=1;html=1;dashPattern=1 3;strokeWidth=2;rounded=0;" parent="1" edge="1">
          <mxGeometry width="50" height="50" relative="1" as="geometry">
            <mxPoint x="340" y="580" as="sourcePoint" />
            <mxPoint x="340" y="70" as="targetPoint" />
          </mxGeometry>
        </mxCell>
        <mxCell id="AVd7qzbXL1Kih0jhRRU6-22" value="" style="endArrow=none;dashed=1;html=1;dashPattern=1 3;strokeWidth=2;rounded=0;" parent="1" edge="1">
          <mxGeometry width="50" height="50" relative="1" as="geometry">
            <mxPoint x="540" y="580" as="sourcePoint" />
            <mxPoint x="540" y="70" as="targetPoint" />
          </mxGeometry>
        </mxCell>
        <mxCell id="AVd7qzbXL1Kih0jhRRU6-23" value="" style="endArrow=none;dashed=1;html=1;dashPattern=1 3;strokeWidth=2;rounded=0;" parent="1" edge="1">
          <mxGeometry width="50" height="50" relative="1" as="geometry">
            <mxPoint x="740" y="580" as="sourcePoint" />
            <mxPoint x="740" y="70" as="targetPoint" />
          </mxGeometry>
        </mxCell>
        <mxCell id="AVd7qzbXL1Kih0jhRRU6-24" value="" style="endArrow=none;dashed=1;html=1;dashPattern=1 3;strokeWidth=2;rounded=0;" parent="1" edge="1">
          <mxGeometry width="50" height="50" relative="1" as="geometry">
            <mxPoint x="160" y="580" as="sourcePoint" />
            <mxPoint x="160" y="70" as="targetPoint" />
          </mxGeometry>
        </mxCell>
        <mxCell id="V2cncd4yz-tCqN6mv9xG-2" value="" style="sketch=0;outlineConnect=0;fontColor=#232F3E;gradientColor=none;fillColor=#D45B07;strokeColor=none;dashed=0;verticalLabelPosition=bottom;verticalAlign=top;align=center;html=1;fontSize=12;fontStyle=0;aspect=fixed;pointerEvents=1;shape=mxgraph.aws4.lambda_function;" parent="1" vertex="1">
          <mxGeometry x="350" y="170" width="30" height="30" as="geometry" />
        </mxCell>
      </root>
    </mxGraphModel>
  </diagram>
  <diagram name="Overview Architecture" id="sA2ASN9J_D_I8t40GnU9">
    <mxGraphModel dx="1515" dy="197" grid="1" gridSize="10" guides="1" tooltips="1" connect="1" arrows="1" fold="1" page="1" pageScale="1" pageWidth="1169" pageHeight="827" math="0" shadow="0">
      <root>
        <mxCell id="uirjIj6bYjF3nZtHTbUJ-0" />
        <mxCell id="uirjIj6bYjF3nZtHTbUJ-1" parent="uirjIj6bYjF3nZtHTbUJ-0" />
        <mxCell id="4jXBArgGeuYYW7B8_aEQ-0" style="edgeStyle=orthogonalEdgeStyle;rounded=0;orthogonalLoop=1;jettySize=auto;html=1;entryX=0;entryY=0.25;entryDx=0;entryDy=0;entryPerimeter=0;strokeWidth=2;fillColor=#0050ef;strokeColor=#001DBC;" parent="uirjIj6bYjF3nZtHTbUJ-1" source="uirjIj6bYjF3nZtHTbUJ-6" target="l9qoeUmx4S-g-ZKE5IJm-0" edge="1">
          <mxGeometry relative="1" as="geometry">
            <Array as="points">
              <mxPoint x="360" y="119" />
              <mxPoint x="360" y="100" />
              <mxPoint x="500" y="100" />
            </Array>
          </mxGeometry>
        </mxCell>
        <mxCell id="NoyupzAbwGSOo03kcvNX-7" value="A1" style="edgeLabel;html=1;align=center;verticalAlign=middle;resizable=0;points=[];" vertex="1" connectable="0" parent="4jXBArgGeuYYW7B8_aEQ-0">
          <mxGeometry x="0.0217" y="2" relative="1" as="geometry">
            <mxPoint as="offset" />
          </mxGeometry>
        </mxCell>
        <mxCell id="uirjIj6bYjF3nZtHTbUJ-6" value="Amazon MSK" style="sketch=0;points=[[0,0,0],[0.25,0,0],[0.5,0,0],[0.75,0,0],[1,0,0],[0,1,0],[0.25,1,0],[0.5,1,0],[0.75,1,0],[1,1,0],[0,0.25,0],[0,0.5,0],[0,0.75,0],[1,0.25,0],[1,0.5,0],[1,0.75,0]];outlineConnect=0;fontColor=#232F3E;gradientColor=#945DF2;gradientDirection=north;fillColor=#5A30B5;strokeColor=#ffffff;dashed=0;verticalLabelPosition=bottom;verticalAlign=top;align=center;html=1;fontSize=12;fontStyle=0;aspect=fixed;shape=mxgraph.aws4.resourceIcon;resIcon=mxgraph.aws4.managed_streaming_for_kafka;" parent="uirjIj6bYjF3nZtHTbUJ-1" vertex="1">
          <mxGeometry x="200" y="80" width="78" height="78" as="geometry" />
        </mxCell>
        <mxCell id="uirjIj6bYjF3nZtHTbUJ-7" style="edgeStyle=orthogonalEdgeStyle;rounded=0;orthogonalLoop=1;jettySize=auto;html=1;exitX=0.5;exitY=1;exitDx=0;exitDy=0;exitPerimeter=0;strokeWidth=2;fillColor=#a20025;strokeColor=#6F0000;" parent="uirjIj6bYjF3nZtHTbUJ-1" source="l9qoeUmx4S-g-ZKE5IJm-2" target="uirjIj6bYjF3nZtHTbUJ-4" edge="1">
          <mxGeometry relative="1" as="geometry">
            <Array as="points">
              <mxPoint x="417" y="310" />
              <mxPoint x="417" y="310" />
            </Array>
          </mxGeometry>
        </mxCell>
        <mxCell id="NoyupzAbwGSOo03kcvNX-11" value="B2" style="edgeLabel;html=1;align=center;verticalAlign=middle;resizable=0;points=[];" vertex="1" connectable="0" parent="uirjIj6bYjF3nZtHTbUJ-7">
          <mxGeometry x="0.2796" y="-3" relative="1" as="geometry">
            <mxPoint x="3" y="-8" as="offset" />
          </mxGeometry>
        </mxCell>
        <mxCell id="mp1fD015WtjVSvZjmN1K-0" value="" style="edgeStyle=orthogonalEdgeStyle;rounded=0;orthogonalLoop=1;jettySize=auto;html=1;entryX=0;entryY=0.5;entryDx=0;entryDy=0;entryPerimeter=0;exitX=1;exitY=0.75;exitDx=0;exitDy=0;exitPerimeter=0;strokeWidth=2;fillColor=#a20025;strokeColor=#6F0000;" parent="uirjIj6bYjF3nZtHTbUJ-1" source="uirjIj6bYjF3nZtHTbUJ-6" target="l9qoeUmx4S-g-ZKE5IJm-2" edge="1">
          <mxGeometry relative="1" as="geometry" />
        </mxCell>
        <mxCell id="NoyupzAbwGSOo03kcvNX-10" value="B1" style="edgeLabel;html=1;align=center;verticalAlign=middle;resizable=0;points=[];" vertex="1" connectable="0" parent="mp1fD015WtjVSvZjmN1K-0">
          <mxGeometry x="-0.2996" y="-2" relative="1" as="geometry">
            <mxPoint as="offset" />
          </mxGeometry>
        </mxCell>
        <mxCell id="uirjIj6bYjF3nZtHTbUJ-27" value="" style="sketch=0;outlineConnect=0;fontColor=#232F3E;gradientColor=none;fillColor=#D45B07;strokeColor=none;dashed=0;verticalLabelPosition=bottom;verticalAlign=top;align=center;html=1;fontSize=12;fontStyle=0;aspect=fixed;pointerEvents=1;shape=mxgraph.aws4.lambda_function;" parent="uirjIj6bYjF3nZtHTbUJ-1" vertex="1">
          <mxGeometry x="289" y="184.5" width="31" height="31" as="geometry" />
        </mxCell>
        <mxCell id="43wMWSllFD5lgRLD-BKV-1" style="edgeStyle=orthogonalEdgeStyle;rounded=0;orthogonalLoop=1;jettySize=auto;html=1;startArrow=none;startFill=0;exitX=0;exitY=0.75;exitDx=0;exitDy=0;exitPerimeter=0;strokeWidth=2;fillColor=#6a00ff;strokeColor=#3700CC;entryX=0.75;entryY=0;entryDx=0;entryDy=0;entryPerimeter=0;" parent="uirjIj6bYjF3nZtHTbUJ-1" source="l9qoeUmx4S-g-ZKE5IJm-0" target="l9qoeUmx4S-g-ZKE5IJm-2" edge="1">
          <mxGeometry relative="1" as="geometry" />
        </mxCell>
        <mxCell id="NoyupzAbwGSOo03kcvNX-8" value="A2" style="edgeLabel;html=1;align=center;verticalAlign=middle;resizable=0;points=[];" vertex="1" connectable="0" parent="43wMWSllFD5lgRLD-BKV-1">
          <mxGeometry x="0.1438" y="2" relative="1" as="geometry">
            <mxPoint as="offset" />
          </mxGeometry>
        </mxCell>
        <mxCell id="l9qoeUmx4S-g-ZKE5IJm-0" value="Kinesis Analytics" style="sketch=0;points=[[0,0,0],[0.25,0,0],[0.5,0,0],[0.75,0,0],[1,0,0],[0,1,0],[0.25,1,0],[0.5,1,0],[0.75,1,0],[1,1,0],[0,0.25,0],[0,0.5,0],[0,0.75,0],[1,0.25,0],[1,0.5,0],[1,0.75,0]];outlineConnect=0;fontColor=#232F3E;gradientColor=#945DF2;gradientDirection=north;fillColor=#5A30B5;strokeColor=#ffffff;dashed=0;verticalLabelPosition=bottom;verticalAlign=top;align=center;html=1;fontSize=12;fontStyle=0;aspect=fixed;shape=mxgraph.aws4.resourceIcon;resIcon=mxgraph.aws4.kinesis_data_analytics;" parent="uirjIj6bYjF3nZtHTbUJ-1" vertex="1">
          <mxGeometry x="538" y="80" width="78" height="78" as="geometry" />
        </mxCell>
        <mxCell id="NoyupzAbwGSOo03kcvNX-6" style="edgeStyle=orthogonalEdgeStyle;rounded=0;orthogonalLoop=1;jettySize=auto;html=1;exitX=0.5;exitY=1;exitDx=0;exitDy=0;exitPerimeter=0;strokeWidth=2;fillColor=#6a00ff;strokeColor=#3700CC;" edge="1" parent="uirjIj6bYjF3nZtHTbUJ-1" source="NoyupzAbwGSOo03kcvNX-12" target="l9qoeUmx4S-g-ZKE5IJm-4">
          <mxGeometry relative="1" as="geometry">
            <Array as="points">
              <mxPoint x="577" y="290" />
              <mxPoint x="577" y="290" />
            </Array>
          </mxGeometry>
        </mxCell>
        <mxCell id="NoyupzAbwGSOo03kcvNX-9" value="A4" style="edgeLabel;html=1;align=center;verticalAlign=middle;resizable=0;points=[];" vertex="1" connectable="0" parent="NoyupzAbwGSOo03kcvNX-6">
          <mxGeometry x="-0.3173" y="1" relative="1" as="geometry">
            <mxPoint x="-1" y="10" as="offset" />
          </mxGeometry>
        </mxCell>
        <mxCell id="NoyupzAbwGSOo03kcvNX-13" value="A3" style="edgeStyle=orthogonalEdgeStyle;rounded=0;orthogonalLoop=1;jettySize=auto;html=1;entryX=0;entryY=0.5;entryDx=0;entryDy=0;entryPerimeter=0;strokeWidth=2;fillColor=#0050ef;strokeColor=#001DBC;" edge="1" parent="uirjIj6bYjF3nZtHTbUJ-1" source="l9qoeUmx4S-g-ZKE5IJm-2" target="NoyupzAbwGSOo03kcvNX-12">
          <mxGeometry relative="1" as="geometry" />
        </mxCell>
        <mxCell id="l9qoeUmx4S-g-ZKE5IJm-2" value="Kinesis Firehose" style="sketch=0;points=[[0,0,0],[0.25,0,0],[0.5,0,0],[0.75,0,0],[1,0,0],[0,1,0],[0.25,1,0],[0.5,1,0],[0.75,1,0],[1,1,0],[0,0.25,0],[0,0.5,0],[0,0.75,0],[1,0.25,0],[1,0.5,0],[1,0.75,0]];outlineConnect=0;fontColor=#232F3E;gradientColor=#945DF2;gradientDirection=north;fillColor=#5A30B5;strokeColor=#ffffff;dashed=0;verticalLabelPosition=bottom;verticalAlign=top;align=center;html=1;fontSize=12;fontStyle=0;aspect=fixed;shape=mxgraph.aws4.resourceIcon;resIcon=mxgraph.aws4.kinesis_data_firehose;" parent="uirjIj6bYjF3nZtHTbUJ-1" vertex="1">
          <mxGeometry x="378" y="201" width="78" height="78" as="geometry" />
        </mxCell>
        <mxCell id="l9qoeUmx4S-g-ZKE5IJm-5" value="QuickSight" style="sketch=0;points=[[0,0,0],[0.25,0,0],[0.5,0,0],[0.75,0,0],[1,0,0],[0,1,0],[0.25,1,0],[0.5,1,0],[0.75,1,0],[1,1,0],[0,0.25,0],[0,0.5,0],[0,0.75,0],[1,0.25,0],[1,0.5,0],[1,0.75,0]];outlineConnect=0;fontColor=#232F3E;gradientColor=#945DF2;gradientDirection=north;fillColor=#5A30B5;strokeColor=#ffffff;dashed=0;verticalLabelPosition=bottom;verticalAlign=top;align=center;html=1;fontSize=12;fontStyle=0;aspect=fixed;shape=mxgraph.aws4.resourceIcon;resIcon=mxgraph.aws4.quicksight;" parent="uirjIj6bYjF3nZtHTbUJ-1" vertex="1">
          <mxGeometry x="760" y="340" width="78" height="78" as="geometry" />
        </mxCell>
        <mxCell id="G2nnIeCWK85N5esdCq1e-2" style="edgeStyle=orthogonalEdgeStyle;rounded=0;orthogonalLoop=1;jettySize=auto;html=1;exitX=1.053;exitY=0.663;exitDx=0;exitDy=0;exitPerimeter=0;" parent="uirjIj6bYjF3nZtHTbUJ-1" source="G2nnIeCWK85N5esdCq1e-0" target="G2nnIeCWK85N5esdCq1e-1" edge="1">
          <mxGeometry relative="1" as="geometry">
            <Array as="points">
              <mxPoint x="40" y="424" />
              <mxPoint x="40" y="520" />
            </Array>
          </mxGeometry>
        </mxCell>
        <mxCell id="G2nnIeCWK85N5esdCq1e-0" value="Web VIew Users" style="points=[];aspect=fixed;html=1;align=center;shadow=0;dashed=0;image;image=img/lib/allied_telesis/computer_and_terminals/Personal_Computer.svg;" parent="uirjIj6bYjF3nZtHTbUJ-1" vertex="1">
          <mxGeometry x="-79" y="383" width="45.6" height="61.800000000000004" as="geometry" />
        </mxCell>
        <mxCell id="G2nnIeCWK85N5esdCq1e-14" style="edgeStyle=orthogonalEdgeStyle;rounded=0;orthogonalLoop=1;jettySize=auto;html=1;" parent="uirjIj6bYjF3nZtHTbUJ-1" source="G2nnIeCWK85N5esdCq1e-1" target="G2nnIeCWK85N5esdCq1e-20" edge="1">
          <mxGeometry relative="1" as="geometry">
            <Array as="points">
              <mxPoint x="120" y="450" />
              <mxPoint x="120" y="450" />
            </Array>
          </mxGeometry>
        </mxCell>
        <mxCell id="G2nnIeCWK85N5esdCq1e-26" value="User Behavior" style="edgeLabel;html=1;align=center;verticalAlign=middle;resizable=0;points=[];fontStyle=1" parent="G2nnIeCWK85N5esdCq1e-14" vertex="1" connectable="0">
          <mxGeometry x="-0.2397" y="-2" relative="1" as="geometry">
            <mxPoint y="-11" as="offset" />
          </mxGeometry>
        </mxCell>
        <mxCell id="G2nnIeCWK85N5esdCq1e-1" value="Amazon API Gateway" style="sketch=0;outlineConnect=0;fontColor=#232F3E;gradientColor=none;strokeColor=#ffffff;fillColor=#232F3E;dashed=0;verticalLabelPosition=middle;verticalAlign=bottom;align=center;html=1;whiteSpace=wrap;fontSize=10;fontStyle=1;spacing=3;shape=mxgraph.aws4.productIcon;prIcon=mxgraph.aws4.api_gateway;" parent="uirjIj6bYjF3nZtHTbUJ-1" vertex="1">
          <mxGeometry x="80" y="480" width="80" height="110" as="geometry" />
        </mxCell>
        <mxCell id="G2nnIeCWK85N5esdCq1e-12" value="" style="rounded=1;whiteSpace=wrap;html=1;fillColor=none;arcSize=6;align=center;dashed=1;dashPattern=1 2;" parent="uirjIj6bYjF3nZtHTbUJ-1" vertex="1">
          <mxGeometry x="320" y="320" width="360" height="140" as="geometry" />
        </mxCell>
        <mxCell id="G2nnIeCWK85N5esdCq1e-9" style="edgeStyle=orthogonalEdgeStyle;rounded=0;orthogonalLoop=1;jettySize=auto;html=1;" parent="uirjIj6bYjF3nZtHTbUJ-1" source="G2nnIeCWK85N5esdCq1e-6" target="G2nnIeCWK85N5esdCq1e-1" edge="1">
          <mxGeometry relative="1" as="geometry">
            <Array as="points">
              <mxPoint y="535" />
              <mxPoint y="535" />
            </Array>
          </mxGeometry>
        </mxCell>
        <mxCell id="G2nnIeCWK85N5esdCq1e-6" value="Standalone Form Users" style="points=[];aspect=fixed;html=1;align=center;shadow=0;dashed=0;image;image=img/lib/allied_telesis/computer_and_terminals/Personal_Computer.svg;" parent="uirjIj6bYjF3nZtHTbUJ-1" vertex="1">
          <mxGeometry x="-80" y="504.1" width="45.6" height="61.800000000000004" as="geometry" />
        </mxCell>
        <mxCell id="G2nnIeCWK85N5esdCq1e-20" value="VPC" style="sketch=0;outlineConnect=0;gradientColor=none;html=1;whiteSpace=wrap;fontSize=12;fontStyle=0;shape=mxgraph.aws4.group;grIcon=mxgraph.aws4.group_vpc;strokeColor=#879196;fillColor=none;verticalAlign=top;align=left;spacingLeft=30;fontColor=#879196;dashed=0;" parent="uirjIj6bYjF3nZtHTbUJ-1" vertex="1">
          <mxGeometry x="-80" y="80" width="240" height="240" as="geometry" />
        </mxCell>
        <mxCell id="G2nnIeCWK85N5esdCq1e-22" style="edgeStyle=orthogonalEdgeStyle;rounded=0;orthogonalLoop=1;jettySize=auto;html=1;" parent="uirjIj6bYjF3nZtHTbUJ-1" source="G2nnIeCWK85N5esdCq1e-21" target="uirjIj6bYjF3nZtHTbUJ-6" edge="1">
          <mxGeometry relative="1" as="geometry">
            <Array as="points">
              <mxPoint x="140" y="199" />
              <mxPoint x="140" y="199" />
            </Array>
          </mxGeometry>
        </mxCell>
        <mxCell id="G2nnIeCWK85N5esdCq1e-25" value="Process Events" style="edgeLabel;html=1;align=center;verticalAlign=middle;resizable=0;points=[];fontStyle=1" parent="G2nnIeCWK85N5esdCq1e-22" vertex="1" connectable="0">
          <mxGeometry x="0.2338" y="-2" relative="1" as="geometry">
            <mxPoint x="-37" y="-1" as="offset" />
          </mxGeometry>
        </mxCell>
        <mxCell id="G2nnIeCWK85N5esdCq1e-21" value="Amazon EKS" style="sketch=0;outlineConnect=0;fontColor=#232F3E;gradientColor=none;strokeColor=#ffffff;fillColor=#232F3E;dashed=0;verticalLabelPosition=middle;verticalAlign=bottom;align=center;html=1;whiteSpace=wrap;fontSize=10;fontStyle=1;spacing=3;shape=mxgraph.aws4.productIcon;prIcon=mxgraph.aws4.eks;" parent="uirjIj6bYjF3nZtHTbUJ-1" vertex="1">
          <mxGeometry y="160" width="80" height="100" as="geometry" />
        </mxCell>
        <mxCell id="G2nnIeCWK85N5esdCq1e-24" value="Data Lake" style="text;html=1;align=center;verticalAlign=middle;resizable=0;points=[];autosize=1;strokeColor=none;fillColor=none;" parent="uirjIj6bYjF3nZtHTbUJ-1" vertex="1">
          <mxGeometry x="447" y="470" width="70" height="20" as="geometry" />
        </mxCell>
        <mxCell id="NoyupzAbwGSOo03kcvNX-2" style="edgeStyle=orthogonalEdgeStyle;rounded=0;orthogonalLoop=1;jettySize=auto;html=1;entryX=1;entryY=0.25;entryDx=0;entryDy=0;startArrow=none;exitX=0;exitY=0.75;exitDx=0;exitDy=0;exitPerimeter=0;strokeWidth=2;" edge="1" parent="uirjIj6bYjF3nZtHTbUJ-1" source="R2HiwSozxBXKO0xGKOwK-3" target="G2nnIeCWK85N5esdCq1e-12">
          <mxGeometry relative="1" as="geometry">
            <mxPoint x="606" y="520" as="sourcePoint" />
          </mxGeometry>
        </mxCell>
        <mxCell id="NoyupzAbwGSOo03kcvNX-18" value="V2" style="edgeLabel;html=1;align=center;verticalAlign=middle;resizable=0;points=[];" vertex="1" connectable="0" parent="NoyupzAbwGSOo03kcvNX-2">
          <mxGeometry x="-0.3162" y="2" relative="1" as="geometry">
            <mxPoint as="offset" />
          </mxGeometry>
        </mxCell>
        <mxCell id="NoyupzAbwGSOo03kcvNX-5" style="edgeStyle=orthogonalEdgeStyle;rounded=0;orthogonalLoop=1;jettySize=auto;html=1;exitX=0.5;exitY=1;exitDx=0;exitDy=0;exitPerimeter=0;strokeWidth=2;" edge="1" parent="uirjIj6bYjF3nZtHTbUJ-1" source="R2HiwSozxBXKO0xGKOwK-3" target="l9qoeUmx4S-g-ZKE5IJm-5">
          <mxGeometry relative="1" as="geometry" />
        </mxCell>
        <mxCell id="NoyupzAbwGSOo03kcvNX-19" value="V3" style="edgeLabel;html=1;align=center;verticalAlign=middle;resizable=0;points=[];" vertex="1" connectable="0" parent="NoyupzAbwGSOo03kcvNX-5">
          <mxGeometry x="-0.1641" y="-1" relative="1" as="geometry">
            <mxPoint x="1" y="16" as="offset" />
          </mxGeometry>
        </mxCell>
        <mxCell id="NoyupzAbwGSOo03kcvNX-16" style="edgeStyle=orthogonalEdgeStyle;rounded=0;orthogonalLoop=1;jettySize=auto;html=1;strokeWidth=2;entryX=1;entryY=0.5;entryDx=0;entryDy=0;entryPerimeter=0;" edge="1" parent="uirjIj6bYjF3nZtHTbUJ-1" source="R2HiwSozxBXKO0xGKOwK-3" target="NoyupzAbwGSOo03kcvNX-12">
          <mxGeometry relative="1" as="geometry">
            <mxPoint x="620" y="240" as="targetPoint" />
          </mxGeometry>
        </mxCell>
        <mxCell id="NoyupzAbwGSOo03kcvNX-17" value="V1" style="edgeLabel;html=1;align=center;verticalAlign=middle;resizable=0;points=[];" vertex="1" connectable="0" parent="NoyupzAbwGSOo03kcvNX-16">
          <mxGeometry x="-0.1472" y="-1" relative="1" as="geometry">
            <mxPoint as="offset" />
          </mxGeometry>
        </mxCell>
        <mxCell id="R2HiwSozxBXKO0xGKOwK-3" value="Athena Query" style="sketch=0;points=[[0,0,0],[0.25,0,0],[0.5,0,0],[0.75,0,0],[1,0,0],[0,1,0],[0.25,1,0],[0.5,1,0],[0.75,1,0],[1,1,0],[0,0.25,0],[0,0.5,0],[0,0.75,0],[1,0.25,0],[1,0.5,0],[1,0.75,0]];outlineConnect=0;fontColor=#232F3E;gradientColor=#945DF2;gradientDirection=north;fillColor=#5A30B5;strokeColor=#ffffff;dashed=0;verticalLabelPosition=bottom;verticalAlign=top;align=center;html=1;fontSize=12;fontStyle=0;aspect=fixed;shape=mxgraph.aws4.resourceIcon;resIcon=mxgraph.aws4.athena;" parent="uirjIj6bYjF3nZtHTbUJ-1" vertex="1">
          <mxGeometry x="760" y="201" width="78" height="78" as="geometry" />
        </mxCell>
        <mxCell id="uirjIj6bYjF3nZtHTbUJ-4" value="Long-term Storage" style="outlineConnect=0;fontColor=#232F3E;gradientColor=#60A337;gradientDirection=north;fillColor=#277116;strokeColor=#ffffff;dashed=0;verticalLabelPosition=bottom;verticalAlign=top;align=center;html=1;fontSize=12;fontStyle=0;aspect=fixed;shape=mxgraph.aws4.resourceIcon;resIcon=mxgraph.aws4.s3;labelBackgroundColor=#ffffff;" parent="uirjIj6bYjF3nZtHTbUJ-1" vertex="1">
          <mxGeometry x="378.0000000000002" y="340" width="78" height="78" as="geometry" />
        </mxCell>
        <mxCell id="l9qoeUmx4S-g-ZKE5IJm-4" value="Analytics Results" style="outlineConnect=0;fontColor=#232F3E;gradientColor=#60A337;gradientDirection=north;fillColor=#277116;strokeColor=#ffffff;dashed=0;verticalLabelPosition=bottom;verticalAlign=top;align=center;html=1;fontSize=12;fontStyle=0;aspect=fixed;shape=mxgraph.aws4.resourceIcon;resIcon=mxgraph.aws4.s3;labelBackgroundColor=#ffffff;" parent="uirjIj6bYjF3nZtHTbUJ-1" vertex="1">
          <mxGeometry x="538.0000000000002" y="340" width="78" height="78" as="geometry" />
        </mxCell>
        <mxCell id="NoyupzAbwGSOo03kcvNX-12" value="Data Catalog" style="sketch=0;points=[[0,0,0],[0.25,0,0],[0.5,0,0],[0.75,0,0],[1,0,0],[0,1,0],[0.25,1,0],[0.5,1,0],[0.75,1,0],[1,1,0],[0,0.25,0],[0,0.5,0],[0,0.75,0],[1,0.25,0],[1,0.5,0],[1,0.75,0]];outlineConnect=0;fontColor=#232F3E;gradientColor=#945DF2;gradientDirection=north;fillColor=#5A30B5;strokeColor=#ffffff;dashed=0;verticalLabelPosition=bottom;verticalAlign=top;align=center;html=1;fontSize=12;fontStyle=0;aspect=fixed;shape=mxgraph.aws4.resourceIcon;resIcon=mxgraph.aws4.glue;" vertex="1" parent="uirjIj6bYjF3nZtHTbUJ-1">
          <mxGeometry x="538" y="201" width="78" height="78" as="geometry" />
        </mxCell>
      </root>
    </mxGraphModel>
  </diagram>
  <diagram name="Self and Managed Services" id="3p4J1uiXJNSMvVavqNzH">
    <mxGraphModel dx="1038" dy="590" grid="1" gridSize="10" guides="1" tooltips="1" connect="1" arrows="1" fold="1" page="1" pageScale="1" pageWidth="1169" pageHeight="827" math="0" shadow="0">
      <root>
        <mxCell id="9mVVwkb8yk9xMiKaEedk-0" />
        <mxCell id="9mVVwkb8yk9xMiKaEedk-1" parent="9mVVwkb8yk9xMiKaEedk-0" />
        <mxCell id="9mVVwkb8yk9xMiKaEedk-2" value="" style="rounded=1;whiteSpace=wrap;html=1;arcSize=2;" parent="9mVVwkb8yk9xMiKaEedk-1" vertex="1">
          <mxGeometry x="320" y="50" width="610" height="540" as="geometry" />
        </mxCell>
        <mxCell id="9mVVwkb8yk9xMiKaEedk-3" style="edgeStyle=orthogonalEdgeStyle;rounded=0;orthogonalLoop=1;jettySize=auto;html=1;entryX=0;entryY=0.5;entryDx=0;entryDy=0;entryPerimeter=0;" parent="9mVVwkb8yk9xMiKaEedk-1" source="9mVVwkb8yk9xMiKaEedk-4" target="9mVVwkb8yk9xMiKaEedk-16" edge="1">
          <mxGeometry relative="1" as="geometry" />
        </mxCell>
        <mxCell id="9mVVwkb8yk9xMiKaEedk-4" value="Amazon S3" style="outlineConnect=0;fontColor=#232F3E;gradientColor=#60A337;gradientDirection=north;fillColor=#277116;strokeColor=#ffffff;dashed=0;verticalLabelPosition=bottom;verticalAlign=top;align=center;html=1;fontSize=12;fontStyle=0;aspect=fixed;shape=mxgraph.aws4.resourceIcon;resIcon=mxgraph.aws4.s3;labelBackgroundColor=#ffffff;" parent="9mVVwkb8yk9xMiKaEedk-1" vertex="1">
          <mxGeometry x="600.0000000000002" y="160" width="78" height="78" as="geometry" />
        </mxCell>
        <mxCell id="9mVVwkb8yk9xMiKaEedk-8" style="edgeStyle=orthogonalEdgeStyle;rounded=0;orthogonalLoop=1;jettySize=auto;html=1;entryX=0;entryY=0.5;entryDx=0;entryDy=0;entryPerimeter=0;" parent="9mVVwkb8yk9xMiKaEedk-1" source="9mVVwkb8yk9xMiKaEedk-9" edge="1">
          <mxGeometry relative="1" as="geometry">
            <mxPoint x="400" y="199" as="targetPoint" />
          </mxGeometry>
        </mxCell>
        <mxCell id="9mVVwkb8yk9xMiKaEedk-9" value="Amazon EKS" style="sketch=0;points=[[0,0,0],[0.25,0,0],[0.5,0,0],[0.75,0,0],[1,0,0],[0,1,0],[0.25,1,0],[0.5,1,0],[0.75,1,0],[1,1,0],[0,0.25,0],[0,0.5,0],[0,0.75,0],[1,0.25,0],[1,0.5,0],[1,0.75,0]];outlineConnect=0;fontColor=#232F3E;gradientColor=#945DF2;gradientDirection=north;fillColor=#5A30B5;strokeColor=#ffffff;dashed=0;verticalLabelPosition=bottom;verticalAlign=top;align=center;html=1;fontSize=12;fontStyle=0;aspect=fixed;shape=mxgraph.aws4.resourceIcon;resIcon=mxgraph.aws4.managed_streaming_for_kafka;" parent="9mVVwkb8yk9xMiKaEedk-1" vertex="1">
          <mxGeometry x="200" y="160" width="78" height="78" as="geometry" />
        </mxCell>
        <mxCell id="9mVVwkb8yk9xMiKaEedk-10" style="edgeStyle=orthogonalEdgeStyle;rounded=0;orthogonalLoop=1;jettySize=auto;html=1;exitX=1;exitY=0.5;exitDx=0;exitDy=0;exitPerimeter=0;" parent="9mVVwkb8yk9xMiKaEedk-1" target="9mVVwkb8yk9xMiKaEedk-4" edge="1">
          <mxGeometry relative="1" as="geometry">
            <mxPoint x="478" y="199" as="sourcePoint" />
          </mxGeometry>
        </mxCell>
        <mxCell id="9mVVwkb8yk9xMiKaEedk-12" style="edgeStyle=orthogonalEdgeStyle;rounded=0;orthogonalLoop=1;jettySize=auto;html=1;" parent="9mVVwkb8yk9xMiKaEedk-1" source="9mVVwkb8yk9xMiKaEedk-13" edge="1">
          <mxGeometry relative="1" as="geometry">
            <mxPoint x="400.0000000000002" y="359" as="targetPoint" />
          </mxGeometry>
        </mxCell>
        <mxCell id="9mVVwkb8yk9xMiKaEedk-13" value="IAM" style="sketch=0;outlineConnect=0;fontColor=#232F3E;gradientColor=none;fillColor=#D45B07;strokeColor=none;dashed=0;verticalLabelPosition=bottom;verticalAlign=top;align=center;html=1;fontSize=12;fontStyle=0;aspect=fixed;pointerEvents=1;shape=mxgraph.aws4.container_1;" parent="9mVVwkb8yk9xMiKaEedk-1" vertex="1">
          <mxGeometry x="215" y="343.5" width="48" height="31" as="geometry" />
        </mxCell>
        <mxCell id="9mVVwkb8yk9xMiKaEedk-14" style="edgeStyle=orthogonalEdgeStyle;rounded=0;orthogonalLoop=1;jettySize=auto;html=1;" parent="9mVVwkb8yk9xMiKaEedk-1" target="9mVVwkb8yk9xMiKaEedk-4" edge="1">
          <mxGeometry relative="1" as="geometry">
            <mxPoint x="600" y="359" as="targetPoint" />
            <mxPoint x="478.0000000000002" y="359" as="sourcePoint" />
          </mxGeometry>
        </mxCell>
        <mxCell id="9mVVwkb8yk9xMiKaEedk-16" value="" style="sketch=0;points=[[0,0,0],[0.25,0,0],[0.5,0,0],[0.75,0,0],[1,0,0],[0,1,0],[0.25,1,0],[0.5,1,0],[0.75,1,0],[1,1,0],[0,0.25,0],[0,0.5,0],[0,0.75,0],[1,0.25,0],[1,0.5,0],[1,0.75,0]];outlineConnect=0;fontColor=#232F3E;gradientColor=#945DF2;gradientDirection=north;fillColor=#5A30B5;strokeColor=#ffffff;dashed=0;verticalLabelPosition=bottom;verticalAlign=top;align=center;html=1;fontSize=12;fontStyle=0;aspect=fixed;shape=mxgraph.aws4.resourceIcon;resIcon=mxgraph.aws4.quicksight;" parent="9mVVwkb8yk9xMiKaEedk-1" vertex="1">
          <mxGeometry x="800" y="160" width="78" height="78" as="geometry" />
        </mxCell>
        <mxCell id="9mVVwkb8yk9xMiKaEedk-17" value="Processing Data" style="text;html=1;align=center;verticalAlign=middle;resizable=0;points=[];autosize=1;strokeColor=none;fillColor=none;" parent="9mVVwkb8yk9xMiKaEedk-1" vertex="1">
          <mxGeometry x="50" y="189" width="100" height="20" as="geometry" />
        </mxCell>
        <mxCell id="9mVVwkb8yk9xMiKaEedk-18" value="Operator User Info&lt;br&gt;&amp;lt;daily changes&amp;gt;" style="text;html=1;align=center;verticalAlign=middle;resizable=0;points=[];autosize=1;strokeColor=none;fillColor=none;" parent="9mVVwkb8yk9xMiKaEedk-1" vertex="1">
          <mxGeometry x="40" y="349.5" width="110" height="30" as="geometry" />
        </mxCell>
        <mxCell id="9mVVwkb8yk9xMiKaEedk-19" style="edgeStyle=orthogonalEdgeStyle;rounded=0;orthogonalLoop=1;jettySize=auto;html=1;entryX=0.5;entryY=1;entryDx=0;entryDy=0;entryPerimeter=0;" parent="9mVVwkb8yk9xMiKaEedk-1" source="9mVVwkb8yk9xMiKaEedk-20" target="9mVVwkb8yk9xMiKaEedk-16" edge="1">
          <mxGeometry relative="1" as="geometry" />
        </mxCell>
        <mxCell id="9mVVwkb8yk9xMiKaEedk-20" value="" style="sketch=0;points=[[0,0,0],[0.25,0,0],[0.5,0,0],[0.75,0,0],[1,0,0],[0,1,0],[0.25,1,0],[0.5,1,0],[0.75,1,0],[1,1,0],[0,0.25,0],[0,0.5,0],[0,0.75,0],[1,0.25,0],[1,0.5,0],[1,0.75,0]];outlineConnect=0;fontColor=#232F3E;gradientColor=#60A337;gradientDirection=north;fillColor=#277116;strokeColor=#ffffff;dashed=0;verticalLabelPosition=bottom;verticalAlign=top;align=center;html=1;fontSize=12;fontStyle=0;aspect=fixed;shape=mxgraph.aws4.resourceIcon;resIcon=mxgraph.aws4.s3;" parent="9mVVwkb8yk9xMiKaEedk-1" vertex="1">
          <mxGeometry x="200" y="480" width="78" height="78" as="geometry" />
        </mxCell>
        <mxCell id="9mVVwkb8yk9xMiKaEedk-21" value="Other static data&lt;br&gt;&amp;lt;csv,xml,json&amp;gt;" style="text;html=1;align=center;verticalAlign=middle;resizable=0;points=[];autosize=1;strokeColor=none;fillColor=none;" parent="9mVVwkb8yk9xMiKaEedk-1" vertex="1">
          <mxGeometry x="50" y="504" width="100" height="30" as="geometry" />
        </mxCell>
        <mxCell id="9mVVwkb8yk9xMiKaEedk-22" value="Data Sources" style="whiteSpace=wrap;html=1;" parent="9mVVwkb8yk9xMiKaEedk-1" vertex="1">
          <mxGeometry x="190" y="80" width="100" height="30" as="geometry" />
        </mxCell>
        <mxCell id="9mVVwkb8yk9xMiKaEedk-23" value="Data Stream/Analytics" style="whiteSpace=wrap;html=1;" parent="9mVVwkb8yk9xMiKaEedk-1" vertex="1">
          <mxGeometry x="389" y="80" width="100" height="30" as="geometry" />
        </mxCell>
        <mxCell id="9mVVwkb8yk9xMiKaEedk-24" value="Data Warehouse" style="whiteSpace=wrap;html=1;" parent="9mVVwkb8yk9xMiKaEedk-1" vertex="1">
          <mxGeometry x="589" y="80" width="100" height="30" as="geometry" />
        </mxCell>
        <mxCell id="9mVVwkb8yk9xMiKaEedk-25" value="Visualization" style="whiteSpace=wrap;html=1;" parent="9mVVwkb8yk9xMiKaEedk-1" vertex="1">
          <mxGeometry x="789" y="80" width="100" height="30" as="geometry" />
        </mxCell>
        <mxCell id="9mVVwkb8yk9xMiKaEedk-26" value="" style="endArrow=none;dashed=1;html=1;dashPattern=1 3;strokeWidth=2;rounded=0;" parent="9mVVwkb8yk9xMiKaEedk-1" edge="1">
          <mxGeometry width="50" height="50" relative="1" as="geometry">
            <mxPoint x="340" y="580" as="sourcePoint" />
            <mxPoint x="340" y="70" as="targetPoint" />
          </mxGeometry>
        </mxCell>
        <mxCell id="9mVVwkb8yk9xMiKaEedk-27" value="" style="endArrow=none;dashed=1;html=1;dashPattern=1 3;strokeWidth=2;rounded=0;" parent="9mVVwkb8yk9xMiKaEedk-1" edge="1">
          <mxGeometry width="50" height="50" relative="1" as="geometry">
            <mxPoint x="540" y="580" as="sourcePoint" />
            <mxPoint x="540" y="70" as="targetPoint" />
          </mxGeometry>
        </mxCell>
        <mxCell id="9mVVwkb8yk9xMiKaEedk-28" value="" style="endArrow=none;dashed=1;html=1;dashPattern=1 3;strokeWidth=2;rounded=0;" parent="9mVVwkb8yk9xMiKaEedk-1" edge="1">
          <mxGeometry width="50" height="50" relative="1" as="geometry">
            <mxPoint x="740" y="580" as="sourcePoint" />
            <mxPoint x="740" y="70" as="targetPoint" />
          </mxGeometry>
        </mxCell>
        <mxCell id="9mVVwkb8yk9xMiKaEedk-29" value="" style="endArrow=none;dashed=1;html=1;dashPattern=1 3;strokeWidth=2;rounded=0;" parent="9mVVwkb8yk9xMiKaEedk-1" edge="1">
          <mxGeometry width="50" height="50" relative="1" as="geometry">
            <mxPoint x="160" y="580" as="sourcePoint" />
            <mxPoint x="160" y="70" as="targetPoint" />
          </mxGeometry>
        </mxCell>
        <mxCell id="opyOZA-GpzFMlqb6kKES-2" style="edgeStyle=orthogonalEdgeStyle;rounded=0;orthogonalLoop=1;jettySize=auto;html=1;" parent="9mVVwkb8yk9xMiKaEedk-1" source="9mVVwkb8yk9xMiKaEedk-4" edge="1">
          <mxGeometry relative="1" as="geometry">
            <mxPoint x="645" y="320" as="sourcePoint" />
            <mxPoint x="439" y="238" as="targetPoint" />
            <Array as="points">
              <mxPoint x="610" y="290" />
              <mxPoint x="439" y="290" />
            </Array>
          </mxGeometry>
        </mxCell>
        <mxCell id="BqXJvEH9W6T3BwSOOfI4-0" value="Logstash" style="shape=image;imageAspect=0;aspect=fixed;verticalLabelPosition=bottom;verticalAlign=top;image=https://elastic-content-share.eu/wp-content/uploads/edd/2020/06/logstash-logo-color.png;" parent="9mVVwkb8yk9xMiKaEedk-1" vertex="1">
          <mxGeometry x="399" y="160" width="80" height="80" as="geometry" />
        </mxCell>
        <mxCell id="BqXJvEH9W6T3BwSOOfI4-1" value="Logstash" style="shape=image;imageAspect=0;aspect=fixed;verticalLabelPosition=bottom;verticalAlign=top;image=https://elastic-content-share.eu/wp-content/uploads/edd/2020/06/logstash-logo-color.png;" parent="9mVVwkb8yk9xMiKaEedk-1" vertex="1">
          <mxGeometry x="399" y="318" width="80" height="80" as="geometry" />
        </mxCell>
      </root>
    </mxGraphModel>
  </diagram>
  <diagram id="Ihw0cQxzgYg-sp8jG3Nw" name="RocksDB">
    <mxGraphModel dx="1038" dy="590" grid="1" gridSize="10" guides="1" tooltips="1" connect="1" arrows="1" fold="1" page="1" pageScale="1" pageWidth="850" pageHeight="1100" math="0" shadow="0">
      <root>
        <mxCell id="0" />
        <mxCell id="1" parent="0" />
        <mxCell id="qhMC2pUrDBR9TRcvGdto-1" value="" style="rounded=1;whiteSpace=wrap;html=1;arcSize=3;fillColor=none;" parent="1" vertex="1">
          <mxGeometry x="80" y="250" width="240" height="240" as="geometry" />
        </mxCell>
        <mxCell id="qhMC2pUrDBR9TRcvGdto-10" style="edgeStyle=orthogonalEdgeStyle;rounded=0;orthogonalLoop=1;jettySize=auto;html=1;entryX=0.5;entryY=1;entryDx=0;entryDy=0;" parent="1" source="qhMC2pUrDBR9TRcvGdto-3" target="qhMC2pUrDBR9TRcvGdto-7" edge="1">
          <mxGeometry relative="1" as="geometry" />
        </mxCell>
        <mxCell id="qhMC2pUrDBR9TRcvGdto-3" value="bussiness" style="rounded=1;whiteSpace=wrap;html=1;fillColor=#f8cecc;strokeColor=#b85450;" parent="1" vertex="1">
          <mxGeometry x="100" y="382" width="200" height="40" as="geometry" />
        </mxCell>
        <mxCell id="qhMC2pUrDBR9TRcvGdto-8" style="edgeStyle=orthogonalEdgeStyle;rounded=0;orthogonalLoop=1;jettySize=auto;html=1;exitX=0.75;exitY=0;exitDx=0;exitDy=0;" parent="1" source="qhMC2pUrDBR9TRcvGdto-7" target="qhMC2pUrDBR9TRcvGdto-5" edge="1">
          <mxGeometry relative="1" as="geometry" />
        </mxCell>
        <mxCell id="qhMC2pUrDBR9TRcvGdto-9" style="edgeStyle=orthogonalEdgeStyle;rounded=0;orthogonalLoop=1;jettySize=auto;html=1;exitX=0.25;exitY=0;exitDx=0;exitDy=0;" parent="1" source="qhMC2pUrDBR9TRcvGdto-7" target="qhMC2pUrDBR9TRcvGdto-6" edge="1">
          <mxGeometry relative="1" as="geometry" />
        </mxCell>
        <mxCell id="qhMC2pUrDBR9TRcvGdto-7" value="Repository" style="rounded=1;whiteSpace=wrap;html=1;fillColor=#f8cecc;strokeColor=#b85450;verticalAlign=middle;" parent="1" vertex="1">
          <mxGeometry x="100" y="320" width="200" height="40" as="geometry" />
        </mxCell>
        <mxCell id="qhMC2pUrDBR9TRcvGdto-28" style="edgeStyle=orthogonalEdgeStyle;rounded=0;orthogonalLoop=1;jettySize=auto;html=1;startArrow=classic;startFill=1;" parent="1" source="qhMC2pUrDBR9TRcvGdto-5" target="qhMC2pUrDBR9TRcvGdto-19" edge="1">
          <mxGeometry relative="1" as="geometry" />
        </mxCell>
        <mxCell id="qhMC2pUrDBR9TRcvGdto-29" value="&amp;nbsp; replicates&amp;nbsp;&amp;nbsp;" style="edgeLabel;html=1;align=center;verticalAlign=middle;resizable=0;points=[];" parent="qhMC2pUrDBR9TRcvGdto-28" vertex="1" connectable="0">
          <mxGeometry x="-0.2956" y="-1" relative="1" as="geometry">
            <mxPoint x="17" y="-1" as="offset" />
          </mxGeometry>
        </mxCell>
        <mxCell id="qhMC2pUrDBR9TRcvGdto-5" value="cache p1&amp;nbsp;" style="rounded=1;whiteSpace=wrap;html=1;fillColor=#f5f5f5;fontColor=#333333;strokeColor=#666666;" parent="1" vertex="1">
          <mxGeometry x="210" y="259" width="80" height="40" as="geometry" />
        </mxCell>
        <mxCell id="qhMC2pUrDBR9TRcvGdto-26" style="edgeStyle=orthogonalEdgeStyle;rounded=0;orthogonalLoop=1;jettySize=auto;html=1;exitX=0.5;exitY=0;exitDx=0;exitDy=0;exitPerimeter=0;dashed=1;startArrow=classic;startFill=1;" parent="1" source="qhMC2pUrDBR9TRcvGdto-6" target="qhMC2pUrDBR9TRcvGdto-25" edge="1">
          <mxGeometry relative="1" as="geometry">
            <Array as="points">
              <mxPoint x="150" y="182" />
            </Array>
          </mxGeometry>
        </mxCell>
        <mxCell id="bp1nHFZv1HDYtpThPZwu-3" value="sst" style="edgeLabel;html=1;align=center;verticalAlign=middle;resizable=0;points=[];" parent="qhMC2pUrDBR9TRcvGdto-26" vertex="1" connectable="0">
          <mxGeometry x="0.1696" y="3" relative="1" as="geometry">
            <mxPoint as="offset" />
          </mxGeometry>
        </mxCell>
        <mxCell id="iy-M_XBuKmxu2iWWoIdt-3" style="edgeStyle=orthogonalEdgeStyle;curved=1;rounded=0;orthogonalLoop=1;jettySize=auto;html=1;exitX=0;exitY=0;exitDx=0;exitDy=12.214285714285694;exitPerimeter=0;entryX=0.25;entryY=1;entryDx=0;entryDy=0;entryPerimeter=0;startArrow=classic;startFill=1;dashed=1;" parent="1" source="qhMC2pUrDBR9TRcvGdto-6" target="iy-M_XBuKmxu2iWWoIdt-1" edge="1">
          <mxGeometry relative="1" as="geometry">
            <Array as="points">
              <mxPoint x="70" y="271" />
              <mxPoint x="70" y="130" />
              <mxPoint x="120" y="130" />
            </Array>
          </mxGeometry>
        </mxCell>
        <mxCell id="bp1nHFZv1HDYtpThPZwu-1" value="wal" style="edgeLabel;html=1;align=center;verticalAlign=middle;resizable=0;points=[];" parent="iy-M_XBuKmxu2iWWoIdt-3" vertex="1" connectable="0">
          <mxGeometry x="0.3885" y="-8" relative="1" as="geometry">
            <mxPoint as="offset" />
          </mxGeometry>
        </mxCell>
        <mxCell id="qhMC2pUrDBR9TRcvGdto-6" value="RocksDB" style="shape=cylinder3;whiteSpace=wrap;html=1;boundedLbl=1;backgroundOutline=1;size=4.428571428571388;fillColor=#e1d5e7;strokeColor=#9673a6;" parent="1" vertex="1">
          <mxGeometry x="120" y="259" width="60" height="40" as="geometry" />
        </mxCell>
        <mxCell id="qhMC2pUrDBR9TRcvGdto-12" style="edgeStyle=orthogonalEdgeStyle;rounded=0;orthogonalLoop=1;jettySize=auto;html=1;exitX=0.5;exitY=0;exitDx=0;exitDy=0;entryX=0.5;entryY=1;entryDx=0;entryDy=0;" parent="1" source="qhMC2pUrDBR9TRcvGdto-11" target="qhMC2pUrDBR9TRcvGdto-3" edge="1">
          <mxGeometry relative="1" as="geometry" />
        </mxCell>
        <mxCell id="qhMC2pUrDBR9TRcvGdto-11" value="APIs" style="rounded=1;whiteSpace=wrap;html=1;fillColor=#f8cecc;strokeColor=#b85450;" parent="1" vertex="1">
          <mxGeometry x="100" y="440" width="200" height="40" as="geometry" />
        </mxCell>
        <mxCell id="qhMC2pUrDBR9TRcvGdto-13" value="" style="rounded=1;whiteSpace=wrap;html=1;arcSize=3;fillColor=none;direction=east;" parent="1" vertex="1">
          <mxGeometry x="439" y="250" width="240" height="240" as="geometry" />
        </mxCell>
        <mxCell id="qhMC2pUrDBR9TRcvGdto-14" style="edgeStyle=orthogonalEdgeStyle;rounded=0;orthogonalLoop=1;jettySize=auto;html=1;entryX=0.5;entryY=1;entryDx=0;entryDy=0;" parent="1" source="qhMC2pUrDBR9TRcvGdto-15" target="qhMC2pUrDBR9TRcvGdto-18" edge="1">
          <mxGeometry relative="1" as="geometry" />
        </mxCell>
        <mxCell id="qhMC2pUrDBR9TRcvGdto-15" value="bussiness" style="rounded=1;whiteSpace=wrap;html=1;fillColor=#f8cecc;strokeColor=#b85450;direction=east;" parent="1" vertex="1">
          <mxGeometry x="459" y="382" width="200" height="40" as="geometry" />
        </mxCell>
        <mxCell id="qhMC2pUrDBR9TRcvGdto-16" style="edgeStyle=orthogonalEdgeStyle;rounded=0;orthogonalLoop=1;jettySize=auto;html=1;exitX=0.25;exitY=0;exitDx=0;exitDy=0;" parent="1" source="qhMC2pUrDBR9TRcvGdto-18" target="qhMC2pUrDBR9TRcvGdto-19" edge="1">
          <mxGeometry relative="1" as="geometry" />
        </mxCell>
        <mxCell id="qhMC2pUrDBR9TRcvGdto-31" style="edgeStyle=orthogonalEdgeStyle;rounded=0;orthogonalLoop=1;jettySize=auto;html=1;exitX=0.75;exitY=0;exitDx=0;exitDy=0;entryX=0.5;entryY=1;entryDx=0;entryDy=0;entryPerimeter=0;startArrow=none;startFill=0;" parent="1" source="qhMC2pUrDBR9TRcvGdto-18" target="qhMC2pUrDBR9TRcvGdto-20" edge="1">
          <mxGeometry relative="1" as="geometry" />
        </mxCell>
        <mxCell id="qhMC2pUrDBR9TRcvGdto-18" value="Repository" style="rounded=1;whiteSpace=wrap;html=1;fillColor=#f8cecc;strokeColor=#b85450;verticalAlign=middle;direction=east;" parent="1" vertex="1">
          <mxGeometry x="459" y="320" width="200" height="40" as="geometry" />
        </mxCell>
        <mxCell id="iy-M_XBuKmxu2iWWoIdt-2" style="edgeStyle=orthogonalEdgeStyle;rounded=0;orthogonalLoop=1;jettySize=auto;html=1;exitX=0.25;exitY=0;exitDx=0;exitDy=0;entryX=1;entryY=0.5;entryDx=0;entryDy=0;entryPerimeter=0;dashed=1;startArrow=classic;startFill=1;curved=1;" parent="1" source="qhMC2pUrDBR9TRcvGdto-19" target="iy-M_XBuKmxu2iWWoIdt-1" edge="1">
          <mxGeometry relative="1" as="geometry">
            <Array as="points">
              <mxPoint x="440" y="259" />
              <mxPoint x="440" y="39" />
            </Array>
          </mxGeometry>
        </mxCell>
        <mxCell id="bp1nHFZv1HDYtpThPZwu-2" value="wal" style="edgeLabel;html=1;align=center;verticalAlign=middle;resizable=0;points=[];" parent="iy-M_XBuKmxu2iWWoIdt-2" vertex="1" connectable="0">
          <mxGeometry x="0.307" y="19" relative="1" as="geometry">
            <mxPoint as="offset" />
          </mxGeometry>
        </mxCell>
        <mxCell id="qhMC2pUrDBR9TRcvGdto-19" value="cache p2" style="rounded=1;whiteSpace=wrap;html=1;fillColor=#f5f5f5;fontColor=#333333;strokeColor=#666666;direction=east;" parent="1" vertex="1">
          <mxGeometry x="469" y="259" width="80" height="40" as="geometry" />
        </mxCell>
        <mxCell id="qhMC2pUrDBR9TRcvGdto-32" style="edgeStyle=orthogonalEdgeStyle;rounded=0;orthogonalLoop=1;jettySize=auto;html=1;exitX=0.5;exitY=0;exitDx=0;exitDy=0;exitPerimeter=0;startArrow=classic;startFill=1;dashed=1;" parent="1" source="qhMC2pUrDBR9TRcvGdto-20" target="qhMC2pUrDBR9TRcvGdto-27" edge="1">
          <mxGeometry relative="1" as="geometry">
            <mxPoint x="620" y="170" as="targetPoint" />
            <Array as="points">
              <mxPoint x="610" y="180" />
            </Array>
          </mxGeometry>
        </mxCell>
        <mxCell id="bp1nHFZv1HDYtpThPZwu-4" value="sst" style="edgeLabel;html=1;align=center;verticalAlign=middle;resizable=0;points=[];" parent="qhMC2pUrDBR9TRcvGdto-32" vertex="1" connectable="0">
          <mxGeometry x="0.0921" y="-2" relative="1" as="geometry">
            <mxPoint as="offset" />
          </mxGeometry>
        </mxCell>
        <mxCell id="qhMC2pUrDBR9TRcvGdto-20" value="RocksDB" style="shape=cylinder3;whiteSpace=wrap;html=1;boundedLbl=1;backgroundOutline=1;size=4.428571428571388;fillColor=#e1d5e7;strokeColor=#9673a6;direction=east;" parent="1" vertex="1">
          <mxGeometry x="580" y="259" width="60" height="40" as="geometry" />
        </mxCell>
        <mxCell id="qhMC2pUrDBR9TRcvGdto-21" style="edgeStyle=orthogonalEdgeStyle;rounded=0;orthogonalLoop=1;jettySize=auto;html=1;exitX=0.5;exitY=0;exitDx=0;exitDy=0;entryX=0.5;entryY=1;entryDx=0;entryDy=0;" parent="1" source="qhMC2pUrDBR9TRcvGdto-22" target="qhMC2pUrDBR9TRcvGdto-15" edge="1">
          <mxGeometry relative="1" as="geometry" />
        </mxCell>
        <mxCell id="qhMC2pUrDBR9TRcvGdto-22" value="APIs" style="rounded=1;whiteSpace=wrap;html=1;fillColor=#f8cecc;strokeColor=#b85450;direction=east;" parent="1" vertex="1">
          <mxGeometry x="459" y="440" width="200" height="40" as="geometry" />
        </mxCell>
        <mxCell id="qhMC2pUrDBR9TRcvGdto-25" value="/dir_p1" style="sketch=0;pointerEvents=1;shadow=0;dashed=0;html=1;strokeColor=none;fillColor=#505050;labelPosition=center;verticalLabelPosition=bottom;verticalAlign=top;outlineConnect=0;align=center;shape=mxgraph.office.concepts.folder_open;" parent="1" vertex="1">
          <mxGeometry x="244" y="160" width="56" height="43" as="geometry" />
        </mxCell>
        <mxCell id="qhMC2pUrDBR9TRcvGdto-27" value="/dir_p2" style="sketch=0;pointerEvents=1;shadow=0;dashed=0;html=1;strokeColor=none;fillColor=#505050;labelPosition=center;verticalLabelPosition=bottom;verticalAlign=top;outlineConnect=0;align=center;shape=mxgraph.office.concepts.folder_open;" parent="1" vertex="1">
          <mxGeometry x="481" y="160" width="56" height="43" as="geometry" />
        </mxCell>
        <mxCell id="qhMC2pUrDBR9TRcvGdto-34" style="edgeStyle=orthogonalEdgeStyle;rounded=0;orthogonalLoop=1;jettySize=auto;html=1;entryX=0.5;entryY=1;entryDx=0;entryDy=0;dashed=1;startArrow=classic;startFill=1;" parent="1" source="qhMC2pUrDBR9TRcvGdto-33" target="qhMC2pUrDBR9TRcvGdto-1" edge="1">
          <mxGeometry relative="1" as="geometry" />
        </mxCell>
        <mxCell id="qhMC2pUrDBR9TRcvGdto-35" style="edgeStyle=orthogonalEdgeStyle;rounded=0;orthogonalLoop=1;jettySize=auto;html=1;entryX=0.5;entryY=1;entryDx=0;entryDy=0;dashed=1;startArrow=classic;startFill=1;" parent="1" source="qhMC2pUrDBR9TRcvGdto-33" target="qhMC2pUrDBR9TRcvGdto-13" edge="1">
          <mxGeometry relative="1" as="geometry" />
        </mxCell>
        <mxCell id="qhMC2pUrDBR9TRcvGdto-33" value="" style="points=[];aspect=fixed;html=1;align=center;shadow=0;dashed=0;image;image=img/lib/allied_telesis/computer_and_terminals/Personal_Computer.svg;fillColor=none;" parent="1" vertex="1">
          <mxGeometry x="350" y="580" width="45.6" height="61.800000000000004" as="geometry" />
        </mxCell>
        <mxCell id="iy-M_XBuKmxu2iWWoIdt-1" value="" style="sketch=0;points=[[0,0,0],[0.25,0,0],[0.5,0,0],[0.75,0,0],[1,0,0],[0,1,0],[0.25,1,0],[0.5,1,0],[0.75,1,0],[1,1,0],[0,0.25,0],[0,0.5,0],[0,0.75,0],[1,0.25,0],[1,0.5,0],[1,0.75,0]];outlineConnect=0;fontColor=#232F3E;gradientColor=#945DF2;gradientDirection=north;fillColor=#5A30B5;strokeColor=#ffffff;dashed=0;verticalLabelPosition=bottom;verticalAlign=top;align=center;html=1;fontSize=12;fontStyle=0;aspect=fixed;shape=mxgraph.aws4.resourceIcon;resIcon=mxgraph.aws4.managed_streaming_for_kafka;" parent="1" vertex="1">
          <mxGeometry x="100" width="78" height="78" as="geometry" />
        </mxCell>
      </root>
    </mxGraphModel>
  </diagram>
  <diagram id="Hcqs-TCN5rf1S0IEaVzN" name="Page-5">
    <mxGraphModel dx="2272" dy="772" grid="1" gridSize="10" guides="1" tooltips="1" connect="1" arrows="1" fold="1" page="1" pageScale="1" pageWidth="850" pageHeight="1100" math="0" shadow="0">
      <root>
        <mxCell id="0" />
        <mxCell id="1" parent="0" />
        <mxCell id="bcj__-hadG-xWIWMQ4Gs-1" value="Abstract Connector&lt;br&gt;protected analyze()" style="rounded=1;whiteSpace=wrap;html=1;fillColor=none;" parent="1" vertex="1">
          <mxGeometry x="320" y="200" width="260" height="60" as="geometry" />
        </mxCell>
        <mxCell id="bcj__-hadG-xWIWMQ4Gs-4" style="edgeStyle=orthogonalEdgeStyle;curved=1;rounded=0;orthogonalLoop=1;jettySize=auto;html=1;exitX=0.5;exitY=0;exitDx=0;exitDy=0;startArrow=none;startFill=0;" parent="1" source="bcj__-hadG-xWIWMQ4Gs-2" target="bcj__-hadG-xWIWMQ4Gs-1" edge="1">
          <mxGeometry relative="1" as="geometry" />
        </mxCell>
        <mxCell id="bcj__-hadG-xWIWMQ4Gs-2" value="MSK Source" style="rounded=1;whiteSpace=wrap;html=1;fillColor=none;" parent="1" vertex="1">
          <mxGeometry x="130" y="370" width="190" height="60" as="geometry" />
        </mxCell>
        <mxCell id="bcj__-hadG-xWIWMQ4Gs-5" style="edgeStyle=orthogonalEdgeStyle;curved=1;rounded=0;orthogonalLoop=1;jettySize=auto;html=1;entryX=0.75;entryY=1;entryDx=0;entryDy=0;startArrow=none;startFill=0;" parent="1" source="bcj__-hadG-xWIWMQ4Gs-3" target="bcj__-hadG-xWIWMQ4Gs-1" edge="1">
          <mxGeometry relative="1" as="geometry" />
        </mxCell>
        <mxCell id="bcj__-hadG-xWIWMQ4Gs-3" value="Firehose Sink" style="rounded=1;whiteSpace=wrap;html=1;fillColor=none;" parent="1" vertex="1">
          <mxGeometry x="520" y="370" width="190" height="60" as="geometry" />
        </mxCell>
        <mxCell id="bcj__-hadG-xWIWMQ4Gs-7" style="edgeStyle=orthogonalEdgeStyle;curved=1;rounded=0;orthogonalLoop=1;jettySize=auto;html=1;entryX=0;entryY=0.5;entryDx=0;entryDy=0;startArrow=none;startFill=0;" parent="1" source="bcj__-hadG-xWIWMQ4Gs-6" target="bcj__-hadG-xWIWMQ4Gs-1" edge="1">
          <mxGeometry relative="1" as="geometry" />
        </mxCell>
        <mxCell id="bcj__-hadG-xWIWMQ4Gs-6" value="SLA Report&amp;nbsp;&amp;nbsp;Analytics App" style="rounded=1;whiteSpace=wrap;html=1;fillColor=#ffe6cc;strokeColor=#d79b00;" parent="1" vertex="1">
          <mxGeometry x="-130" y="120" width="190" height="60" as="geometry" />
        </mxCell>
        <mxCell id="bcj__-hadG-xWIWMQ4Gs-9" style="edgeStyle=orthogonalEdgeStyle;curved=1;rounded=0;orthogonalLoop=1;jettySize=auto;html=1;startArrow=none;startFill=0;" parent="1" source="bcj__-hadG-xWIWMQ4Gs-8" target="bcj__-hadG-xWIWMQ4Gs-1" edge="1">
          <mxGeometry relative="1" as="geometry" />
        </mxCell>
        <mxCell id="bcj__-hadG-xWIWMQ4Gs-8" value="SQC Detail Report Analytics App" style="rounded=1;whiteSpace=wrap;html=1;fillColor=#ffe6cc;strokeColor=#d79b00;" parent="1" vertex="1">
          <mxGeometry x="-120" y="230" width="190" height="60" as="geometry" />
        </mxCell>
      </root>
    </mxGraphModel>
  </diagram>
</mxfile>
